# xmcd CD database file
#
# Track frame offsets:
#	150
#	19157
#	41607
#
# Disc length: 804 seconds
#
# Revision: 0
# Processed by: cddbd v1.5.1PL0 Copyright (c) Steve Scherf et al.
# Submitted via: CDex 1.51
#
DISCID=1c032203
DTITLE=市井紗耶香 in CUBIC-CROSS - 届け！恋のテレパシー
DYEAR=2002
DGENRE=JPop
TTITLE0=届け！恋のテレパシー
TTITLE1=がんばってみるよ
TTITLE2=届け！恋のテレパシー(Instrumental)
EXTD=YEAR: 2002
EXTT0=
EXTT1=
EXTT2=
PLAYORDER=
